# xmcd
#
# Track frame offsets:
# 150
# 33752
# 63050
# 91087
# 126087
# 173575
# 220877
#
# Disc length: 3520 seconds
#
#
# Revision: 1
# Processed by: cddbd v1.5.1PL0 Copyright (c) Steve Scherf et al.
# Submitted via: FreeRIP 2.942 
#
DISCID=4d0dbe07
DTITLE=Blues Traveler - Voodoo Children
DYEAR=1993
DGENRE=Blues
TTITLE0=Ain't Got Nothin'
TTITLE1=Crusin' The Town
TTITLE2=Give Me All
TTITLE3=Can't Trust A Woman
TTITLE4=Runnin and Hiddin'
TTITLE5=Blues Jam #1
TTITLE6=Blues Jam #2
EXTD=Recorded live at the Lonestar  Roadhouse,\nN.Y. 8/6/1993
EXTT0=
EXTT1=
EXTT2=
EXTT3=
EXTT4=
EXTT5=
EXTT6=
PLAYORDER=
